<svg width="46" height="45" viewBox="0 0 46 45" fill="none" xmlns="http://www.w3.org/2000/svg">
<path fill-rule="evenodd" clip-rule="evenodd" d="M28.5 25C28.0478 25 27.4089 25.0625 26.7438 25.1536C26.4331 25.1962 26.1962 25.4331 26.1536 25.7438C26.0625 26.4089 26 27.0478 26 27.5C26 27.9522 26.0625 28.5911 26.1536 29.2562C26.1962 29.5669 26.4331 29.8038 26.7438 29.8464C27.4089 29.9375 28.0478 30 28.5 30C28.9522 30 29.5911 29.9375 30.2562 29.8464C30.5669 29.8038 30.8038 29.5669 30.8464 29.2562C30.9375 28.5911 31 27.9522 31 27.5C31 27.0478 30.9375 26.4089 30.8464 25.7438C30.8038 25.4331 30.5669 25.1962 30.2562 25.1536C29.5911 25.0625 28.9522 25 28.5 25ZM26.4724 23.1721C25.2725 23.3364 24.3364 24.2725 24.1721 25.4724C24.0778 26.1606 24 26.9082 24 27.5C24 28.0918 24.0778 28.8394 24.1721 29.5276C24.3364 30.7275 25.2725 31.6636 26.4724 31.8279C27.1606 31.9222 27.9082 32 28.5 32C29.0918 32 29.8394 31.9222 30.5276 31.8279C31.7275 31.6636 32.6636 30.7275 32.8279 29.5276C32.9222 28.8394 33 28.0918 33 27.5C33 26.9082 32.9222 26.1606 32.8279 25.4724C32.6636 24.2725 31.7275 23.3364 30.5276 23.1721C29.8394 23.0778 29.0918 23 28.5 23C27.9082 23 27.1606 23.0778 26.4724 23.1721Z" fill="#5F6388"/>
<path fill-rule="evenodd" clip-rule="evenodd" d="M17.5 25C17.0478 25 16.4089 25.0625 15.7438 25.1536C15.4331 25.1962 15.1962 25.4331 15.1536 25.7438C15.0625 26.4089 15 27.0478 15 27.5C15 27.9522 15.0625 28.5911 15.1536 29.2562C15.1962 29.5669 15.4331 29.8038 15.7438 29.8464C16.4089 29.9375 17.0478 30 17.5 30C17.9522 30 18.5911 29.9375 19.2562 29.8464C19.5669 29.8038 19.8038 29.5669 19.8464 29.2562C19.9375 28.5911 20 27.9522 20 27.5C20 27.0478 19.9375 26.4089 19.8464 25.7438C19.8038 25.4331 19.5669 25.1962 19.2562 25.1536C18.5911 25.0625 17.9522 25 17.5 25ZM15.4724 23.1721C14.2725 23.3364 13.3364 24.2725 13.1721 25.4724C13.0778 26.1606 13 26.9082 13 27.5C13 28.0918 13.0778 28.8394 13.1721 29.5276C13.3364 30.7275 14.2725 31.6636 15.4724 31.8279C16.1606 31.9222 16.9082 32 17.5 32C18.0918 32 18.8394 31.9222 19.5276 31.8279C20.7275 31.6636 21.6636 30.7275 21.8279 29.5276C21.9222 28.8394 22 28.0918 22 27.5C22 26.9082 21.9222 26.1606 21.8279 25.4724C21.6636 24.2725 20.7275 23.3364 19.5276 23.1721C18.8394 23.0778 18.0918 23 17.5 23C16.9082 23 16.1606 23.0778 15.4724 23.1721Z" fill="#5F6388"/>
<path fill-rule="evenodd" clip-rule="evenodd" d="M28.5 14C28.0478 14 27.4089 14.0625 26.7438 14.1536C26.4331 14.1962 26.1962 14.4331 26.1536 14.7438C26.0625 15.4089 26 16.0478 26 16.5C26 16.9522 26.0625 17.5911 26.1536 18.2562C26.1962 18.5669 26.4331 18.8038 26.7438 18.8464C27.4089 18.9375 28.0478 19 28.5 19C28.9522 19 29.5911 18.9375 30.2562 18.8464C30.5669 18.8038 30.8038 18.5669 30.8464 18.2562C30.9375 17.5911 31 16.9522 31 16.5C31 16.0478 30.9375 15.4089 30.8464 14.7438C30.8038 14.4331 30.5669 14.1962 30.2562 14.1536C29.5911 14.0625 28.9522 14 28.5 14ZM26.4724 12.1721C25.2725 12.3364 24.3364 13.2725 24.1721 14.4724C24.0778 15.1606 24 15.9082 24 16.5C24 17.0918 24.0778 17.8394 24.1721 18.5276C24.3364 19.7275 25.2725 20.6636 26.4724 20.8279C27.1606 20.9222 27.9082 21 28.5 21C29.0918 21 29.8394 20.9222 30.5276 20.8279C31.7275 20.6636 32.6636 19.7275 32.8279 18.5276C32.9222 17.8394 33 17.0918 33 16.5C33 15.9082 32.9222 15.1606 32.8279 14.4724C32.6636 13.2725 31.7275 12.3364 30.5276 12.1721C29.8394 12.0778 29.0918 12 28.5 12C27.9082 12 27.1606 12.0778 26.4724 12.1721Z" fill="#5F6388"/>
<path fill-rule="evenodd" clip-rule="evenodd" d="M17.5 14C17.0478 14 16.4089 14.0625 15.7438 14.1536C15.4331 14.1962 15.1962 14.4331 15.1536 14.7438C15.0625 15.4089 15 16.0478 15 16.5C15 16.9522 15.0625 17.5911 15.1536 18.2562C15.1962 18.5669 15.4331 18.8038 15.7438 18.8464C16.4089 18.9375 17.0478 19 17.5 19C17.9522 19 18.5911 18.9375 19.2562 18.8464C19.5669 18.8038 19.8038 18.5669 19.8464 18.2562C19.9375 17.5911 20 16.9522 20 16.5C20 16.0478 19.9375 15.4089 19.8464 14.7438C19.8038 14.4331 19.5669 14.1962 19.2562 14.1536C18.5911 14.0625 17.9522 14 17.5 14ZM15.4724 12.1721C14.2725 12.3364 13.3364 13.2725 13.1721 14.4724C13.0778 15.1606 13 15.9082 13 16.5C13 17.0918 13.0778 17.8394 13.1721 18.5276C13.3364 19.7275 14.2725 20.6636 15.4724 20.8279C16.1606 20.9222 16.9082 21 17.5 21C18.0918 21 18.8394 20.9222 19.5276 20.8279C20.7275 20.6636 21.6636 19.7275 21.8279 18.5276C21.9222 17.8394 22 17.0918 22 16.5C22 15.9082 21.9222 15.1606 21.8279 14.4724C21.6636 13.2725 20.7275 12.3364 19.5276 12.1721C18.8394 12.0778 18.0918 12 17.5 12C16.9082 12 16.1606 12.0778 15.4724 12.1721Z" fill="#5F6388"/>
</svg>
