<svg width="28" height="27" viewBox="0 0 28 27" fill="none" xmlns="http://www.w3.org/2000/svg">
<g filter="url(#filter0_d_92_7838)">
<path d="M22.183 7.00798L8.19105 1.22798C7.66163 1.00877 7.08052 0.945927 6.51651 1.0469C5.9525 1.14786 5.42922 1.40841 5.00861 1.7977C4.588 2.18699 4.28767 2.68871 4.14319 3.24348C3.9987 3.79824 4.0161 4.38281 4.19334 4.92798L5.73246 9.77798L4.15336 14.628C3.97133 15.1753 3.95089 15.7636 4.09447 16.3223C4.23805 16.881 4.53956 17.3864 4.9629 17.778C5.50722 18.283 6.21946 18.5681 6.96175 18.578C7.35626 18.5777 7.74683 18.4996 8.11109 18.348L22.1531 12.568C22.6999 12.3404 23.1672 11.9559 23.4959 11.4629C23.8246 10.9699 24 10.3906 24 9.79798C24 9.20537 23.8246 8.62603 23.4959 8.13305C23.1672 7.64007 22.6999 7.25555 22.1531 7.02798L22.183 7.00798ZM7.38151 16.478C7.20521 16.5507 7.01179 16.5715 6.82407 16.5379C6.63635 16.5042 6.46218 16.4175 6.32212 16.288C6.19018 16.1618 6.09528 16.0019 6.04771 15.8257C6.00014 15.6494 6.00172 15.4634 6.05227 15.288L7.51144 10.778L21.2336 10.778L7.38151 16.478ZM7.51144 8.77798L6.02229 4.30798C5.97174 4.13253 5.97016 3.94658 6.01773 3.7703C6.0653 3.59402 6.1602 3.43413 6.29213 3.30798C6.38619 3.20926 6.49943 3.13083 6.6249 3.07752C6.75037 3.02421 6.88541 2.99714 7.02172 2.99798C7.15569 2.99824 7.28824 3.02545 7.41149 3.07798L21.2336 8.77798H7.51144Z" fill="#5F6388"/>
</g>
<defs>
<filter id="filter0_d_92_7838" x="0" y="1" width="28" height="25.5779" filterUnits="userSpaceOnUse" color-interpolation-filters="sRGB">
<feFlood flood-opacity="0" result="BackgroundImageFix"/>
<feColorMatrix in="SourceAlpha" type="matrix" values="0 0 0 0 0 0 0 0 0 0 0 0 0 0 0 0 0 0 127 0" result="hardAlpha"/>
<feOffset dy="4"/>
<feGaussianBlur stdDeviation="2"/>
<feComposite in2="hardAlpha" operator="out"/>
<feColorMatrix type="matrix" values="0 0 0 0 0 0 0 0 0 0 0 0 0 0 0 0 0 0 0.25 0"/>
<feBlend mode="normal" in2="BackgroundImageFix" result="effect1_dropShadow_92_7838"/>
<feBlend mode="normal" in="SourceGraphic" in2="effect1_dropShadow_92_7838" result="shape"/>
</filter>
</defs>
</svg>
